<mxfile host="Electron" agent="Mozilla/5.0 (Windows NT 10.0; Win64; x64) AppleWebKit/537.36 (KHTML, like Gecko) draw.io/27.0.9 Chrome/134.0.6998.205 Electron/35.4.0 Safari/537.36" version="27.0.9">
  <diagram name="Pagina-1" id="v2iPNRDdluznMMyifvXb">
    <mxGraphModel dx="1097" dy="760" grid="1" gridSize="10" guides="1" tooltips="1" connect="1" arrows="1" fold="1" page="1" pageScale="1" pageWidth="827" pageHeight="1169" math="0" shadow="0">
      <root>
        <mxCell id="0" />
        <mxCell id="1" parent="0" />
        <mxCell id="ZsCVXoBuxW4i0PFWi5AK-1" value="Controller" style="swimlane;fontStyle=1;align=center;verticalAlign=top;childLayout=stackLayout;horizontal=1;startSize=26;horizontalStack=0;resizeParent=1;resizeParentMax=0;resizeLast=0;collapsible=1;marginBottom=0;whiteSpace=wrap;html=1;fillColor=#60a917;fontColor=#ffffff;strokeColor=#FFFFFF;swimlaneFillColor=#60A917;" parent="1" vertex="1">
          <mxGeometry x="480" y="90" width="260" height="190" as="geometry" />
        </mxCell>
        <mxCell id="ZsCVXoBuxW4i0PFWi5AK-2" value="- dbConnection: Connection&lt;br&gt;- printAccessi: Writer&lt;br&gt;- printModifiche: Writer" style="text;strokeColor=none;fillColor=none;align=left;verticalAlign=top;spacingLeft=4;spacingRight=4;overflow=hidden;rotatable=0;points=[[0,0.5],[1,0.5]];portConstraint=eastwest;whiteSpace=wrap;html=1;" parent="ZsCVXoBuxW4i0PFWi5AK-1" vertex="1">
          <mxGeometry y="26" width="260" height="54" as="geometry" />
        </mxCell>
        <mxCell id="ZsCVXoBuxW4i0PFWi5AK-3" value="" style="line;strokeWidth=1;fillColor=#60a917;align=left;verticalAlign=middle;spacingTop=-1;spacingLeft=3;spacingRight=3;rotatable=0;labelPosition=right;points=[];portConstraint=eastwest;strokeColor=default;fontColor=#ffffff;gradientColor=none;dashed=1;" parent="ZsCVXoBuxW4i0PFWi5AK-1" vertex="1">
          <mxGeometry y="80" width="260" height="8" as="geometry" />
        </mxCell>
        <mxCell id="ZsCVXoBuxW4i0PFWi5AK-4" value="- openConnection(String)&lt;br&gt;- openLogAccessi(logAccessiFile: Path)&lt;br&gt;- openLogModifiche(logModificheFile: Path)&lt;br&gt;# printAccessi(String)&lt;br&gt;# printModifiche(String)&lt;br&gt;# Connection getConnection()" style="text;strokeColor=none;fillColor=none;align=left;verticalAlign=top;spacingLeft=4;spacingRight=4;overflow=hidden;rotatable=0;points=[[0,0.5],[1,0.5]];portConstraint=eastwest;whiteSpace=wrap;html=1;" parent="ZsCVXoBuxW4i0PFWi5AK-1" vertex="1">
          <mxGeometry y="88" width="260" height="102" as="geometry" />
        </mxCell>
        <mxCell id="ZsCVXoBuxW4i0PFWi5AK-47" style="edgeStyle=orthogonalEdgeStyle;rounded=0;orthogonalLoop=1;jettySize=auto;html=1;exitX=0.25;exitY=0;exitDx=0;exitDy=0;endArrow=oval;endFill=0;" parent="1" source="ZsCVXoBuxW4i0PFWi5AK-5" edge="1">
          <mxGeometry relative="1" as="geometry">
            <mxPoint x="431" y="410" as="targetPoint" />
          </mxGeometry>
        </mxCell>
        <mxCell id="ZsCVXoBuxW4i0PFWi5AK-5" value="PannelloController" style="swimlane;fontStyle=1;align=center;verticalAlign=top;childLayout=stackLayout;horizontal=1;startSize=26;horizontalStack=0;resizeParent=1;resizeParentMax=0;resizeLast=0;collapsible=1;marginBottom=0;whiteSpace=wrap;html=1;swimlaneFillColor=#60A917;fillColor=#60A917;fontColor=#FFFFFF;strokeColor=#FFFFFF;" parent="1" vertex="1">
          <mxGeometry x="376" y="440" width="220" height="134" as="geometry" />
        </mxCell>
        <mxCell id="zAOkc7LwtYn2oZmOYGSj-4" style="line;strokeWidth=1;fillColor=none;align=left;verticalAlign=middle;spacingTop=-1;spacingLeft=3;spacingRight=3;rotatable=0;labelPosition=right;points=[];portConstraint=eastwest;strokeColor=none;dashed=1;" parent="ZsCVXoBuxW4i0PFWi5AK-5" vertex="1">
          <mxGeometry y="26" width="220" height="14" as="geometry" />
        </mxCell>
        <mxCell id="ZsCVXoBuxW4i0PFWi5AK-6" value="" style="line;strokeWidth=1;fillColor=none;align=left;verticalAlign=middle;spacingTop=-1;spacingLeft=3;spacingRight=3;rotatable=0;labelPosition=right;points=[];portConstraint=eastwest;strokeColor=default;dashed=1;" parent="ZsCVXoBuxW4i0PFWi5AK-5" vertex="1">
          <mxGeometry y="40" width="220" height="8" as="geometry" />
        </mxCell>
        <mxCell id="ZsCVXoBuxW4i0PFWi5AK-7" value="+ aggiungiSensore(Sensore)&lt;div&gt;+ rimuoviSensore(String)&lt;/div&gt;&lt;div&gt;+ modificaArgine(String, Float)&lt;/div&gt;&lt;div&gt;+ modificaSoglieRischio(String, Soglie)&lt;/div&gt;&lt;div&gt;+ inviaMessaggio(String[], Messaggio)&lt;/div&gt;&lt;div&gt;&lt;br&gt;&lt;/div&gt;" style="text;strokeColor=none;fillColor=none;align=left;verticalAlign=top;spacingLeft=4;spacingRight=4;overflow=hidden;rotatable=0;points=[[0,0.5],[1,0.5]];portConstraint=eastwest;whiteSpace=wrap;html=1;" parent="ZsCVXoBuxW4i0PFWi5AK-5" vertex="1">
          <mxGeometry y="48" width="220" height="86" as="geometry" />
        </mxCell>
        <mxCell id="ZsCVXoBuxW4i0PFWi5AK-9" value="IPannello" style="text;strokeColor=none;align=center;fillColor=none;html=1;verticalAlign=middle;whiteSpace=wrap;rounded=0;" parent="1" vertex="1">
          <mxGeometry x="370" y="390" width="60" height="30" as="geometry" />
        </mxCell>
        <mxCell id="LfCt-tGbMtgAmulj6y8o-1" style="edgeStyle=orthogonalEdgeStyle;rounded=0;orthogonalLoop=1;jettySize=auto;html=1;exitX=0.25;exitY=0;exitDx=0;exitDy=0;endArrow=oval;endFill=0;" edge="1" parent="1" source="ZsCVXoBuxW4i0PFWi5AK-11">
          <mxGeometry relative="1" as="geometry">
            <mxPoint x="205.1052631578948" y="40" as="targetPoint" />
          </mxGeometry>
        </mxCell>
        <mxCell id="ZsCVXoBuxW4i0PFWi5AK-11" value="VisualizzaUltimoDato" style="swimlane;fontStyle=1;align=center;verticalAlign=top;childLayout=stackLayout;horizontal=1;startSize=26;horizontalStack=0;resizeParent=1;resizeParentMax=0;resizeLast=0;collapsible=1;marginBottom=0;whiteSpace=wrap;html=1;swimlaneFillColor=#60A917;fillColor=#60A917;fontColor=#FFFFFF;strokeColor=#FFFFFF;" parent="1" vertex="1">
          <mxGeometry x="150" y="90" width="220" height="94" as="geometry" />
        </mxCell>
        <mxCell id="zAOkc7LwtYn2oZmOYGSj-1" style="line;strokeWidth=1;fillColor=none;align=left;verticalAlign=middle;spacingTop=-1;spacingLeft=3;spacingRight=3;rotatable=0;labelPosition=right;points=[];portConstraint=eastwest;strokeColor=none;" parent="ZsCVXoBuxW4i0PFWi5AK-11" vertex="1">
          <mxGeometry y="26" width="220" height="14" as="geometry" />
        </mxCell>
        <mxCell id="ZsCVXoBuxW4i0PFWi5AK-12" value="" style="line;strokeWidth=1;fillColor=none;align=left;verticalAlign=middle;spacingTop=-1;spacingLeft=3;spacingRight=3;rotatable=0;labelPosition=right;points=[];portConstraint=eastwest;strokeColor=default;dashed=1;" parent="ZsCVXoBuxW4i0PFWi5AK-11" vertex="1">
          <mxGeometry y="40" width="220" height="8" as="geometry" />
        </mxCell>
        <mxCell id="ZsCVXoBuxW4i0PFWi5AK-13" value="+ visualizza(Posizione)&lt;div&gt;+ aggiorna()&lt;/div&gt;" style="text;strokeColor=none;fillColor=none;align=left;verticalAlign=top;spacingLeft=4;spacingRight=4;overflow=hidden;rotatable=0;points=[[0,0.5],[1,0.5]];portConstraint=eastwest;whiteSpace=wrap;html=1;" parent="ZsCVXoBuxW4i0PFWi5AK-11" vertex="1">
          <mxGeometry y="48" width="220" height="46" as="geometry" />
        </mxCell>
        <mxCell id="ZsCVXoBuxW4i0PFWi5AK-14" value="IVisualizzaUltimoDato" style="text;strokeColor=none;align=center;fillColor=none;html=1;verticalAlign=middle;whiteSpace=wrap;rounded=0;" parent="1" vertex="1">
          <mxGeometry x="106" y="40" width="60" height="30" as="geometry" />
        </mxCell>
        <mxCell id="ZsCVXoBuxW4i0PFWi5AK-48" style="rounded=0;orthogonalLoop=1;jettySize=auto;html=1;exitX=0.75;exitY=0;exitDx=0;exitDy=0;entryX=0;entryY=0.5;entryDx=0;entryDy=0;endArrow=block;endFill=0;" parent="1" source="ZsCVXoBuxW4i0PFWi5AK-21" target="ZsCVXoBuxW4i0PFWi5AK-4" edge="1">
          <mxGeometry relative="1" as="geometry" />
        </mxCell>
        <mxCell id="zAOkc7LwtYn2oZmOYGSj-13" style="edgeStyle=orthogonalEdgeStyle;rounded=0;orthogonalLoop=1;jettySize=auto;html=1;exitX=0.25;exitY=0;exitDx=0;exitDy=0;endArrow=oval;endFill=0;" parent="1" source="ZsCVXoBuxW4i0PFWi5AK-21" edge="1">
          <mxGeometry relative="1" as="geometry">
            <mxPoint x="191" y="210" as="targetPoint" />
          </mxGeometry>
        </mxCell>
        <mxCell id="ZsCVXoBuxW4i0PFWi5AK-21" value="VisualizzaStorico" style="swimlane;fontStyle=1;align=center;verticalAlign=top;childLayout=stackLayout;horizontal=1;startSize=26;horizontalStack=0;resizeParent=1;resizeParentMax=0;resizeLast=0;collapsible=1;marginBottom=0;whiteSpace=wrap;html=1;swimlaneFillColor=#60A917;fillColor=#60A917;fontColor=#FFFFFF;strokeColor=#FFFFFF;" parent="1" vertex="1">
          <mxGeometry x="136" y="260" width="220" height="94" as="geometry" />
        </mxCell>
        <mxCell id="zAOkc7LwtYn2oZmOYGSj-2" style="line;strokeWidth=1;fillColor=none;align=left;verticalAlign=middle;spacingTop=-1;spacingLeft=3;spacingRight=3;rotatable=0;labelPosition=right;points=[];portConstraint=eastwest;strokeColor=none;" parent="ZsCVXoBuxW4i0PFWi5AK-21" vertex="1">
          <mxGeometry y="26" width="220" height="14" as="geometry" />
        </mxCell>
        <mxCell id="ZsCVXoBuxW4i0PFWi5AK-22" value="" style="line;strokeWidth=1;fillColor=none;align=left;verticalAlign=middle;spacingTop=-1;spacingLeft=3;spacingRight=3;rotatable=0;labelPosition=right;points=[];portConstraint=eastwest;strokeColor=default;dashed=1;" parent="ZsCVXoBuxW4i0PFWi5AK-21" vertex="1">
          <mxGeometry y="40" width="220" height="8" as="geometry" />
        </mxCell>
        <mxCell id="ZsCVXoBuxW4i0PFWi5AK-23" value="+ selezionaFiume(String)&lt;div&gt;+ listaTutto()&lt;/div&gt;" style="text;strokeColor=none;fillColor=none;align=left;verticalAlign=top;spacingLeft=4;spacingRight=4;overflow=hidden;rotatable=0;points=[[0,0.5],[1,0.5]];portConstraint=eastwest;whiteSpace=wrap;html=1;" parent="ZsCVXoBuxW4i0PFWi5AK-21" vertex="1">
          <mxGeometry y="48" width="220" height="46" as="geometry" />
        </mxCell>
        <mxCell id="ZsCVXoBuxW4i0PFWi5AK-39" style="edgeStyle=orthogonalEdgeStyle;rounded=0;orthogonalLoop=1;jettySize=auto;html=1;exitX=0.25;exitY=0;exitDx=0;exitDy=0;endArrow=oval;endFill=0;" parent="1" source="ZsCVXoBuxW4i0PFWi5AK-24" edge="1">
          <mxGeometry relative="1" as="geometry">
            <mxPoint x="181" y="380" as="targetPoint" />
          </mxGeometry>
        </mxCell>
        <mxCell id="ZsCVXoBuxW4i0PFWi5AK-24" value="AreaPersonaleController" style="swimlane;fontStyle=1;align=center;verticalAlign=top;childLayout=stackLayout;horizontal=1;startSize=26;horizontalStack=0;resizeParent=1;resizeParentMax=0;resizeLast=0;collapsible=1;marginBottom=0;whiteSpace=wrap;html=1;swimlaneFillColor=#60A917;fillColor=#60A917;fontColor=#FFFFFF;strokeColor=#FFFFFF;" parent="1" vertex="1">
          <mxGeometry x="126" y="440" width="220" height="160" as="geometry" />
        </mxCell>
        <mxCell id="zAOkc7LwtYn2oZmOYGSj-3" style="line;strokeWidth=1;fillColor=none;align=left;verticalAlign=middle;spacingTop=-1;spacingLeft=3;spacingRight=3;rotatable=0;labelPosition=right;points=[];portConstraint=eastwest;strokeColor=none;dashed=1;" parent="ZsCVXoBuxW4i0PFWi5AK-24" vertex="1">
          <mxGeometry y="26" width="220" height="24" as="geometry" />
        </mxCell>
        <mxCell id="ZsCVXoBuxW4i0PFWi5AK-25" value="" style="line;strokeWidth=1;fillColor=none;align=left;verticalAlign=middle;spacingTop=-1;spacingLeft=3;spacingRight=3;rotatable=0;labelPosition=right;points=[];portConstraint=eastwest;strokeColor=default;dashed=1;" parent="ZsCVXoBuxW4i0PFWi5AK-24" vertex="1">
          <mxGeometry y="50" width="220" height="8" as="geometry" />
        </mxCell>
        <mxCell id="ZsCVXoBuxW4i0PFWi5AK-26" value="+ modificaResidenza(Posizione)&lt;div&gt;+ modificaTelefono(String)&lt;br&gt;&lt;div&gt;+ impostaLivelloRischio(LivelloRischio)&lt;/div&gt;&lt;/div&gt;&lt;div&gt;+ setMessaggiNonPrioritari(Boolean)&lt;/div&gt;&lt;div&gt;+ visualizzaResidenza()&lt;/div&gt;&lt;div&gt;&lt;font style=&quot;color: rgb(255, 255, 255);&quot;&gt;&lt;b&gt;+ getLivelliRischio()&lt;/b&gt;&lt;/font&gt;&lt;/div&gt;" style="text;strokeColor=none;fillColor=none;align=left;verticalAlign=top;spacingLeft=4;spacingRight=4;overflow=hidden;rotatable=0;points=[[0,0.5],[1,0.5]];portConstraint=eastwest;whiteSpace=wrap;html=1;" parent="ZsCVXoBuxW4i0PFWi5AK-24" vertex="1">
          <mxGeometry y="58" width="220" height="102" as="geometry" />
        </mxCell>
        <mxCell id="ZsCVXoBuxW4i0PFWi5AK-42" style="edgeStyle=orthogonalEdgeStyle;rounded=0;orthogonalLoop=1;jettySize=auto;html=1;exitX=0.25;exitY=0;exitDx=0;exitDy=0;endArrow=oval;endFill=0;" parent="1" source="ZsCVXoBuxW4i0PFWi5AK-27" edge="1">
          <mxGeometry relative="1" as="geometry">
            <mxPoint x="681" y="350" as="targetPoint" />
          </mxGeometry>
        </mxCell>
        <mxCell id="ZsCVXoBuxW4i0PFWi5AK-27" value="StatisticheController" style="swimlane;fontStyle=1;align=center;verticalAlign=top;childLayout=stackLayout;horizontal=1;startSize=26;horizontalStack=0;resizeParent=1;resizeParentMax=0;resizeLast=0;collapsible=1;marginBottom=0;whiteSpace=wrap;html=1;swimlaneFillColor=#60A917;fillColor=#60A917;fontColor=#FFFFFF;strokeColor=#FFFFFF;" parent="1" vertex="1">
          <mxGeometry x="626" y="420" width="220" height="144" as="geometry" />
        </mxCell>
        <mxCell id="zAOkc7LwtYn2oZmOYGSj-5" style="line;strokeWidth=1;fillColor=none;align=left;verticalAlign=middle;spacingTop=-1;spacingLeft=3;spacingRight=3;rotatable=0;labelPosition=right;points=[];portConstraint=eastwest;strokeColor=none;dashed=1;" parent="ZsCVXoBuxW4i0PFWi5AK-27" vertex="1">
          <mxGeometry y="26" width="220" height="24" as="geometry" />
        </mxCell>
        <mxCell id="ZsCVXoBuxW4i0PFWi5AK-28" value="" style="line;strokeWidth=1;fillColor=none;align=left;verticalAlign=middle;spacingTop=-1;spacingLeft=3;spacingRight=3;rotatable=0;labelPosition=right;points=[];portConstraint=eastwest;strokeColor=default;dashed=1;" parent="ZsCVXoBuxW4i0PFWi5AK-27" vertex="1">
          <mxGeometry y="50" width="220" height="8" as="geometry" />
        </mxCell>
        <mxCell id="ZsCVXoBuxW4i0PFWi5AK-29" value="+ selezionaPeriodo(Date, Date)&lt;div&gt;+ selezionaStatistica(Statistica)&lt;/div&gt;&lt;div&gt;+ selezionaFiume(String)&lt;/div&gt;&lt;div&gt;+ selezionaSensori(String[])&lt;/div&gt;&lt;div&gt;+ elencaStatistiche(): Statistica[]&lt;/div&gt;" style="text;strokeColor=none;fillColor=none;align=left;verticalAlign=top;spacingLeft=4;spacingRight=4;overflow=hidden;rotatable=0;points=[[0,0.5],[1,0.5]];portConstraint=eastwest;whiteSpace=wrap;html=1;" parent="ZsCVXoBuxW4i0PFWi5AK-27" vertex="1">
          <mxGeometry y="58" width="220" height="86" as="geometry" />
        </mxCell>
        <mxCell id="ZsCVXoBuxW4i0PFWi5AK-41" style="edgeStyle=orthogonalEdgeStyle;rounded=0;orthogonalLoop=1;jettySize=auto;html=1;exitX=0.25;exitY=0;exitDx=0;exitDy=0;endArrow=oval;endFill=0;" parent="1" source="ZsCVXoBuxW4i0PFWi5AK-30" edge="1">
          <mxGeometry relative="1" as="geometry">
            <mxPoint x="936" y="50" as="targetPoint" />
          </mxGeometry>
        </mxCell>
        <mxCell id="ZsCVXoBuxW4i0PFWi5AK-30" value="Login" style="swimlane;fontStyle=1;align=center;verticalAlign=top;childLayout=stackLayout;horizontal=1;startSize=26;horizontalStack=0;resizeParent=1;resizeParentMax=0;resizeLast=0;collapsible=1;marginBottom=0;whiteSpace=wrap;html=1;swimlaneFillColor=#60A917;fillColor=#60A917;fontColor=#FFFFFF;strokeColor=#FFFFFF;" parent="1" vertex="1">
          <mxGeometry x="886" y="80" width="220" height="74" as="geometry" />
        </mxCell>
        <mxCell id="zAOkc7LwtYn2oZmOYGSj-7" style="line;strokeWidth=1;fillColor=none;align=left;verticalAlign=middle;spacingTop=-1;spacingLeft=3;spacingRight=3;rotatable=0;labelPosition=right;points=[];portConstraint=eastwest;strokeColor=none;dashed=1;" parent="ZsCVXoBuxW4i0PFWi5AK-30" vertex="1">
          <mxGeometry y="26" width="220" height="14" as="geometry" />
        </mxCell>
        <mxCell id="ZsCVXoBuxW4i0PFWi5AK-31" value="" style="line;strokeWidth=1;fillColor=none;align=left;verticalAlign=middle;spacingTop=-1;spacingLeft=3;spacingRight=3;rotatable=0;labelPosition=right;points=[];portConstraint=eastwest;strokeColor=default;dashed=1;" parent="ZsCVXoBuxW4i0PFWi5AK-30" vertex="1">
          <mxGeometry y="40" width="220" height="8" as="geometry" />
        </mxCell>
        <mxCell id="ZsCVXoBuxW4i0PFWi5AK-32" value="+ verificaCredenziali(String, String)" style="text;strokeColor=none;fillColor=none;align=left;verticalAlign=top;spacingLeft=4;spacingRight=4;overflow=hidden;rotatable=0;points=[[0,0.5],[1,0.5]];portConstraint=eastwest;whiteSpace=wrap;html=1;" parent="ZsCVXoBuxW4i0PFWi5AK-30" vertex="1">
          <mxGeometry y="48" width="220" height="26" as="geometry" />
        </mxCell>
        <mxCell id="ZsCVXoBuxW4i0PFWi5AK-46" style="edgeStyle=orthogonalEdgeStyle;rounded=0;orthogonalLoop=1;jettySize=auto;html=1;exitX=0.25;exitY=0;exitDx=0;exitDy=0;endArrow=oval;endFill=0;" parent="1" source="ZsCVXoBuxW4i0PFWi5AK-33" edge="1">
          <mxGeometry relative="1" as="geometry">
            <mxPoint x="949" y="170" as="targetPoint" />
          </mxGeometry>
        </mxCell>
        <mxCell id="ZsCVXoBuxW4i0PFWi5AK-55" style="rounded=0;orthogonalLoop=1;jettySize=auto;html=1;exitX=0;exitY=0.25;exitDx=0;exitDy=0;endArrow=block;endFill=0;" parent="1" source="ZsCVXoBuxW4i0PFWi5AK-33" target="ZsCVXoBuxW4i0PFWi5AK-4" edge="1">
          <mxGeometry relative="1" as="geometry" />
        </mxCell>
        <mxCell id="ZsCVXoBuxW4i0PFWi5AK-33" value="Registrazione" style="swimlane;fontStyle=1;align=center;verticalAlign=top;childLayout=stackLayout;horizontal=1;startSize=26;horizontalStack=0;resizeParent=1;resizeParentMax=0;resizeLast=0;collapsible=1;marginBottom=0;whiteSpace=wrap;html=1;swimlaneFillColor=#60A917;fillColor=#60A917;fontColor=#FFFFFF;strokeColor=#FFFFFF;" parent="1" vertex="1">
          <mxGeometry x="886" y="200" width="250" height="74" as="geometry" />
        </mxCell>
        <mxCell id="zAOkc7LwtYn2oZmOYGSj-8" style="line;strokeWidth=1;fillColor=none;align=left;verticalAlign=middle;spacingTop=-1;spacingLeft=3;spacingRight=3;rotatable=0;labelPosition=right;points=[];portConstraint=eastwest;strokeColor=none;dashed=1;" parent="ZsCVXoBuxW4i0PFWi5AK-33" vertex="1">
          <mxGeometry y="26" width="250" height="14" as="geometry" />
        </mxCell>
        <mxCell id="ZsCVXoBuxW4i0PFWi5AK-34" value="" style="line;strokeWidth=1;fillColor=none;align=left;verticalAlign=middle;spacingTop=-1;spacingLeft=3;spacingRight=3;rotatable=0;labelPosition=right;points=[];portConstraint=eastwest;strokeColor=default;dashed=1;" parent="ZsCVXoBuxW4i0PFWi5AK-33" vertex="1">
          <mxGeometry y="40" width="250" height="8" as="geometry" />
        </mxCell>
        <mxCell id="ZsCVXoBuxW4i0PFWi5AK-35" value="+ registra(String, String, Posizione, String)" style="text;strokeColor=none;fillColor=none;align=left;verticalAlign=top;spacingLeft=4;spacingRight=4;overflow=hidden;rotatable=0;points=[[0,0.5],[1,0.5]];portConstraint=eastwest;whiteSpace=wrap;html=1;" parent="ZsCVXoBuxW4i0PFWi5AK-33" vertex="1">
          <mxGeometry y="48" width="250" height="26" as="geometry" />
        </mxCell>
        <mxCell id="zAOkc7LwtYn2oZmOYGSj-20" style="edgeStyle=orthogonalEdgeStyle;rounded=0;orthogonalLoop=1;jettySize=auto;html=1;exitX=0.75;exitY=0;exitDx=0;exitDy=0;endArrow=oval;endFill=0;" parent="1" source="ZsCVXoBuxW4i0PFWi5AK-36" edge="1">
          <mxGeometry relative="1" as="geometry">
            <mxPoint x="1051" y="300" as="targetPoint" />
          </mxGeometry>
        </mxCell>
        <mxCell id="ZsCVXoBuxW4i0PFWi5AK-36" value="AnalisiController" style="swimlane;fontStyle=1;align=center;verticalAlign=top;childLayout=stackLayout;horizontal=1;startSize=26;horizontalStack=0;resizeParent=1;resizeParentMax=0;resizeLast=0;collapsible=1;marginBottom=0;whiteSpace=wrap;html=1;swimlaneFillColor=#60A917;fillColor=#60A917;fontColor=#FFFFFF;strokeColor=#FFFFFF;" parent="1" vertex="1">
          <mxGeometry x="886" y="350" width="220" height="104" as="geometry" />
        </mxCell>
        <mxCell id="zAOkc7LwtYn2oZmOYGSj-6" style="line;strokeWidth=1;fillColor=none;align=left;verticalAlign=middle;spacingTop=-1;spacingLeft=3;spacingRight=3;rotatable=0;labelPosition=right;points=[];portConstraint=eastwest;strokeColor=none;dashed=1;" parent="ZsCVXoBuxW4i0PFWi5AK-36" vertex="1">
          <mxGeometry y="26" width="220" height="14" as="geometry" />
        </mxCell>
        <mxCell id="ZsCVXoBuxW4i0PFWi5AK-37" value="" style="line;strokeWidth=1;fillColor=none;align=left;verticalAlign=middle;spacingTop=-1;spacingLeft=3;spacingRight=3;rotatable=0;labelPosition=right;points=[];portConstraint=eastwest;strokeColor=default;dashed=1;" parent="ZsCVXoBuxW4i0PFWi5AK-36" vertex="1">
          <mxGeometry y="40" width="220" height="8" as="geometry" />
        </mxCell>
        <mxCell id="ZsCVXoBuxW4i0PFWi5AK-38" value="+ analizza(Rilevazione)&lt;div&gt;+ notificaUtenti()&lt;/div&gt;&lt;div&gt;+ memorizza(Rilevazione)&lt;/div&gt;" style="text;strokeColor=none;fillColor=none;align=left;verticalAlign=top;spacingLeft=4;spacingRight=4;overflow=hidden;rotatable=0;points=[[0,0.5],[1,0.5]];portConstraint=eastwest;whiteSpace=wrap;html=1;" parent="ZsCVXoBuxW4i0PFWi5AK-36" vertex="1">
          <mxGeometry y="48" width="220" height="56" as="geometry" />
        </mxCell>
        <mxCell id="ZsCVXoBuxW4i0PFWi5AK-49" style="rounded=0;orthogonalLoop=1;jettySize=auto;html=1;exitX=1;exitY=0.5;exitDx=0;exitDy=0;entryX=0;entryY=0.5;entryDx=0;entryDy=0;endArrow=block;endFill=0;" parent="1" source="ZsCVXoBuxW4i0PFWi5AK-13" target="ZsCVXoBuxW4i0PFWi5AK-2" edge="1">
          <mxGeometry relative="1" as="geometry" />
        </mxCell>
        <mxCell id="ZsCVXoBuxW4i0PFWi5AK-50" style="rounded=0;orthogonalLoop=1;jettySize=auto;html=1;exitX=0.75;exitY=0;exitDx=0;exitDy=0;entryX=0.235;entryY=1;entryDx=0;entryDy=0;entryPerimeter=0;endArrow=block;endFill=0;" parent="1" source="ZsCVXoBuxW4i0PFWi5AK-5" target="ZsCVXoBuxW4i0PFWi5AK-4" edge="1">
          <mxGeometry relative="1" as="geometry" />
        </mxCell>
        <mxCell id="ZsCVXoBuxW4i0PFWi5AK-51" style="rounded=0;orthogonalLoop=1;jettySize=auto;html=1;exitX=0.5;exitY=0;exitDx=0;exitDy=0;entryX=0.852;entryY=1.008;entryDx=0;entryDy=0;entryPerimeter=0;endArrow=block;endFill=0;" parent="1" source="ZsCVXoBuxW4i0PFWi5AK-27" target="ZsCVXoBuxW4i0PFWi5AK-4" edge="1">
          <mxGeometry relative="1" as="geometry" />
        </mxCell>
        <mxCell id="ZsCVXoBuxW4i0PFWi5AK-52" style="rounded=0;orthogonalLoop=1;jettySize=auto;html=1;exitX=0.75;exitY=0;exitDx=0;exitDy=0;entryX=0.008;entryY=1;entryDx=0;entryDy=0;entryPerimeter=0;endArrow=block;endFill=0;" parent="1" source="ZsCVXoBuxW4i0PFWi5AK-24" target="ZsCVXoBuxW4i0PFWi5AK-4" edge="1">
          <mxGeometry relative="1" as="geometry" />
        </mxCell>
        <mxCell id="ZsCVXoBuxW4i0PFWi5AK-56" style="rounded=0;orthogonalLoop=1;jettySize=auto;html=1;exitX=0.5;exitY=0;exitDx=0;exitDy=0;entryX=0.999;entryY=0.804;entryDx=0;entryDy=0;entryPerimeter=0;endArrow=block;endFill=0;" parent="1" source="ZsCVXoBuxW4i0PFWi5AK-36" target="ZsCVXoBuxW4i0PFWi5AK-4" edge="1">
          <mxGeometry relative="1" as="geometry" />
        </mxCell>
        <mxCell id="ZsCVXoBuxW4i0PFWi5AK-57" style="rounded=0;orthogonalLoop=1;jettySize=auto;html=1;exitX=0;exitY=0.5;exitDx=0;exitDy=0;entryX=1.012;entryY=0.652;entryDx=0;entryDy=0;entryPerimeter=0;endArrow=block;endFill=0;" parent="1" source="ZsCVXoBuxW4i0PFWi5AK-32" target="ZsCVXoBuxW4i0PFWi5AK-2" edge="1">
          <mxGeometry relative="1" as="geometry" />
        </mxCell>
        <mxCell id="zAOkc7LwtYn2oZmOYGSj-14" value="IVisualizzaStorico" style="text;strokeColor=none;align=center;fillColor=none;html=1;verticalAlign=middle;whiteSpace=wrap;rounded=0;" parent="1" vertex="1">
          <mxGeometry x="106" y="200" width="60" height="30" as="geometry" />
        </mxCell>
        <mxCell id="zAOkc7LwtYn2oZmOYGSj-15" value="IAreaPersonale" style="text;strokeColor=none;align=center;fillColor=none;html=1;verticalAlign=middle;whiteSpace=wrap;rounded=0;" parent="1" vertex="1">
          <mxGeometry x="90" y="380" width="60" height="30" as="geometry" />
        </mxCell>
        <mxCell id="zAOkc7LwtYn2oZmOYGSj-16" value="IStatistiche" style="text;strokeColor=none;align=center;fillColor=none;html=1;verticalAlign=middle;whiteSpace=wrap;rounded=0;" parent="1" vertex="1">
          <mxGeometry x="616" y="350" width="60" height="30" as="geometry" />
        </mxCell>
        <mxCell id="zAOkc7LwtYn2oZmOYGSj-17" value="IRegistrazione" style="text;strokeColor=none;align=center;fillColor=none;html=1;verticalAlign=middle;whiteSpace=wrap;rounded=0;" parent="1" vertex="1">
          <mxGeometry x="966" y="160" width="60" height="30" as="geometry" />
        </mxCell>
        <mxCell id="zAOkc7LwtYn2oZmOYGSj-18" value="ILogin&lt;span style=&quot;color: rgba(0, 0, 0, 0); font-family: monospace; font-size: 0px; text-align: start; text-wrap-mode: nowrap;&quot;&gt;%3CmxGraphModel%3E%3Croot%3E%3CmxCell%20id%3D%220%22%2F%3E%3CmxCell%20id%3D%221%22%20parent%3D%220%22%2F%3E%3CmxCell%20id%3D%222%22%20value%3D%22IVisualizzaUltimoDato%22%20style%3D%22text%3BstrokeColor%3Dnone%3Balign%3Dcenter%3BfillColor%3Dnone%3Bhtml%3D1%3BverticalAlign%3Dmiddle%3BwhiteSpace%3Dwrap%3Brounded%3D0%3B%22%20vertex%3D%221%22%20parent%3D%221%22%3E%3CmxGeometry%20x%3D%22-90%22%20y%3D%2220%22%20width%3D%2260%22%20height%3D%2230%22%20as%3D%22geometry%22%2F%3E%3C%2FmxCell%3E%3C%2Froot%3E%3C%2FmxGraphModel%3E&lt;/span&gt;" style="text;strokeColor=none;align=center;fillColor=none;html=1;verticalAlign=middle;whiteSpace=wrap;rounded=0;" parent="1" vertex="1">
          <mxGeometry x="936" y="40" width="60" height="30" as="geometry" />
        </mxCell>
        <mxCell id="zAOkc7LwtYn2oZmOYGSj-19" value="IAnalisi" style="text;strokeColor=none;align=center;fillColor=none;html=1;verticalAlign=middle;whiteSpace=wrap;rounded=0;" parent="1" vertex="1">
          <mxGeometry x="1046" y="300" width="60" height="30" as="geometry" />
        </mxCell>
      </root>
    </mxGraphModel>
  </diagram>
</mxfile>
